<svg width="500" height="300" viewBox="0 0 500 300" fill="none" xmlns="http://www.w3.org/2000/svg">
<path d="M154.76 236.6C154.429 236.6 154.181 236.518 154.016 236.352C153.437 236.187 152.941 235.691 153.024 235.195C153.189 233.707 153.437 232.301 153.85 230.979C154.016 230.317 154.594 230.069 155.173 230.235C155.668 230.317 155.916 230.979 155.834 231.475C155.504 232.466 155.256 233.624 155.173 234.616H158.811C159.472 234.616 159.885 235.03 159.885 235.608C159.885 236.187 159.472 236.6 158.811 236.6H154.76V236.6ZM153.189 239.576C153.024 238.915 153.437 238.419 154.098 238.419C154.594 238.336 155.173 238.749 155.173 239.245C155.338 240.65 155.668 241.808 156.082 243.131C156.248 243.627 155.916 244.206 155.421 244.454H155.173C154.76 244.454 154.264 244.206 154.181 243.792C153.685 242.47 153.354 241.064 153.189 239.576V239.576ZM155.504 226.927C156.248 225.522 157.074 224.448 158.067 223.29C158.397 222.876 159.059 222.876 159.472 223.124C159.885 223.538 159.968 224.199 159.555 224.695C158.811 225.604 158.067 226.679 157.24 227.837C157.24 228.25 156.744 228.498 156.497 228.498C156.249 228.498 156.083 228.333 155.917 228.25C155.421 228.002 155.173 227.423 155.504 226.927V226.927ZM156.083 247.761C155.753 247.182 155.835 246.604 156.331 246.273C156.909 246.025 157.488 246.19 157.819 246.604C158.397 247.761 159.224 248.753 160.216 249.746C160.629 250.159 160.547 250.82 160.133 251.233C159.968 251.399 159.72 251.481 159.472 251.481C159.224 251.481 158.811 251.399 158.645 251.233C157.736 250.158 156.744 249.001 156.083 247.761V247.761ZM161.292 220.396C162.448 219.486 163.771 218.825 165.095 218.164C165.591 217.916 166.251 218.164 166.417 218.66C166.665 219.238 166.417 219.817 165.921 220.065C164.681 220.561 163.524 221.305 162.448 221.966C162.283 222.131 162.118 222.214 161.87 222.214C161.54 222.214 161.292 222.131 161.044 221.801C160.712 221.306 160.795 220.644 161.292 220.396V220.396ZM162.118 253.961C161.54 253.713 161.456 253.052 161.788 252.556C162.118 251.977 162.696 251.895 163.275 252.225C164.267 252.969 165.342 253.548 166.665 253.961C167.161 254.209 167.491 254.87 167.243 255.284C167.161 255.779 166.747 256.027 166.335 256.027C166.251 256.027 166.169 255.945 165.921 255.945C164.598 255.449 163.275 254.87 162.118 253.961ZM163.027 236.6C162.448 236.6 161.952 236.187 161.952 235.608C161.952 235.03 162.448 234.616 163.027 234.616H167.161C167.822 234.616 168.235 235.03 168.235 235.608C168.235 236.187 167.822 236.6 167.161 236.6H163.027ZM169.227 216.924C170.385 216.759 171.377 216.593 172.534 216.593C172.865 216.593 173.278 216.593 173.609 216.759C174.188 216.759 174.601 217.255 174.601 217.751C174.518 218.412 174.105 218.825 173.444 218.825C173.196 218.66 172.865 218.66 172.534 218.66C171.542 218.66 170.551 218.825 169.641 218.99H169.393C168.897 218.99 168.483 218.577 168.401 218.164C168.318 217.503 168.731 217.007 169.227 216.924V216.924ZM169.393 255.862C169.393 255.284 169.889 254.87 170.467 254.87C171.129 255.036 171.873 255.036 172.533 255.036C173.195 255.036 173.856 255.036 174.352 254.87C175.013 254.87 175.427 255.284 175.427 255.862C175.592 256.441 175.179 257.019 174.6 257.019C173.939 257.102 173.277 257.102 172.533 257.102C171.707 257.102 170.963 257.102 170.137 257.019C169.641 256.854 169.227 256.358 169.393 255.862V255.862ZM171.294 236.6C170.798 236.6 170.302 236.187 170.302 235.608C170.302 235.03 170.798 234.616 171.294 234.616H175.428C176.089 234.616 176.502 235.03 176.502 235.608C176.502 236.187 176.089 236.6 175.428 236.6H171.294ZM177.329 219.404C176.833 219.238 176.503 218.66 176.751 218.164C176.833 217.503 177.495 217.255 177.991 217.42C179.396 217.916 180.72 218.412 182.042 219.073C182.538 219.404 182.62 220.065 182.456 220.561C182.208 220.892 181.794 221.057 181.546 221.057C181.298 221.057 181.05 221.057 180.968 220.974C179.809 220.396 178.569 219.817 177.329 219.404V219.404ZM178.156 254.126C179.396 253.713 180.553 253.052 181.712 252.391C182.208 252.143 182.868 252.225 183.116 252.804C183.447 253.135 183.282 253.796 182.868 254.126C181.546 254.87 180.223 255.532 178.9 256.027H178.487C178.073 256.027 177.661 255.862 177.495 255.449C177.329 254.87 177.661 254.292 178.156 254.126V254.126ZM179.561 236.6C179.065 236.6 178.569 236.187 178.569 235.608C178.569 235.03 179.065 234.616 179.561 234.616H183.778C184.439 234.616 184.77 235.03 184.77 235.608C184.77 236.187 184.439 236.6 183.778 236.6H179.561ZM184.026 223.29C183.612 222.876 183.612 222.215 184.026 221.802C184.439 221.389 185.1 221.306 185.596 221.719C186.588 222.711 187.498 223.786 188.49 225.026C188.738 225.44 188.655 226.184 188.077 226.514C187.911 226.597 187.663 226.68 187.499 226.68C187.168 226.68 186.92 226.514 186.672 226.184C185.927 225.108 185.1 224.116 184.026 223.29V223.29ZM184.687 249.91C185.596 249.001 186.506 247.926 187.167 246.768C187.498 246.437 188.076 246.189 188.654 246.52C189.068 246.768 189.233 247.429 188.985 247.925C188.076 249.248 187.167 250.322 186.174 251.398C186.091 251.646 185.761 251.728 185.43 251.728C185.182 251.728 184.934 251.646 184.686 251.398C184.274 250.984 184.274 250.323 184.687 249.91V249.91ZM187.911 236.6C187.415 236.6 186.92 236.187 186.92 235.608C186.92 235.03 187.415 234.616 187.911 234.616H191.054C191.55 234.616 192.128 235.03 192.128 235.608C192.128 236.187 191.55 236.6 191.054 236.6H187.911ZM188.655 229.572C188.325 229.077 188.655 228.498 189.151 228.25C189.647 228.002 190.309 228.25 190.557 228.911C191.053 230.068 191.466 231.557 191.714 233.045C191.879 233.541 191.549 234.12 190.97 234.285H190.722C190.309 234.285 189.813 233.872 189.647 233.458C189.482 232.053 189.069 230.812 188.655 229.572V229.572Z" fill="#696969"/>
<path d="M204.45 217.59C204.45 217.094 204.863 216.516 205.525 216.516C206.021 216.516 206.599 217.094 206.599 217.59V221.889C206.599 222.551 206.021 222.964 205.525 222.964C204.863 222.964 204.45 222.551 204.45 221.889V217.59ZM204.45 226.189C204.45 225.61 204.863 225.031 205.525 225.031C206.021 225.031 206.599 225.61 206.599 226.189V230.405C206.599 231.066 206.021 231.48 205.525 231.48C204.863 231.48 204.45 231.066 204.45 230.405V226.189ZM204.45 237.184V234.704C204.45 234.126 204.863 233.63 205.525 233.63H205.69C205.773 233.464 205.938 233.216 206.021 232.968C206.186 232.39 206.765 232.142 207.344 232.39C207.922 232.555 208.17 233.216 208.004 233.795C207.178 235.613 206.765 236.854 206.599 237.35V239.002C206.599 239.581 206.021 239.994 205.525 239.994C204.863 239.994 204.45 239.581 204.45 239.002V237.184V237.184ZM204.45 243.219C204.45 242.64 204.863 242.144 205.525 242.144C206.021 242.144 206.599 242.64 206.599 243.219V247.518C206.599 248.096 206.021 248.592 205.525 248.592C204.863 248.592 204.45 248.096 204.45 247.518V243.219ZM204.45 251.816C204.45 251.237 204.863 250.659 205.525 250.659C206.021 250.659 206.599 251.237 206.599 251.816V256.032C206.599 256.694 206.021 257.107 205.525 257.107C204.863 257.107 204.45 256.694 204.45 256.032V251.816V251.816ZM207.922 229.082C208.666 227.759 209.41 226.436 210.32 225.278C210.65 224.782 211.312 224.7 211.808 225.03C212.22 225.444 212.386 226.022 212.056 226.601C211.228 227.758 210.484 228.915 209.824 229.991C209.576 230.404 209.328 230.652 208.832 230.652C208.666 230.652 208.5 230.487 208.336 230.404C207.758 230.239 207.674 229.495 207.922 229.082ZM213.213 221.889C214.287 220.98 215.527 219.988 216.768 219.078C217.264 218.913 217.926 218.995 218.256 219.574C218.586 219.987 218.338 220.731 217.926 220.979C216.768 221.64 215.694 222.55 214.701 223.542C214.535 223.707 214.123 223.79 213.957 223.79C213.627 223.79 213.461 223.707 213.213 223.542C212.801 223.047 212.801 222.303 213.213 221.889ZM220.903 217.342C222.307 216.929 223.796 216.681 225.366 216.516C225.946 216.516 226.442 217.094 226.442 217.59C226.442 218.252 226.028 218.665 225.366 218.665C224.044 218.83 222.721 218.995 221.481 219.326C221.481 219.326 221.315 219.409 221.233 219.409C220.737 219.409 220.241 219.078 220.159 218.582C219.993 218.086 220.241 217.508 220.903 217.342Z" fill="#696969"/>
<path d="M240.74 217.59C240.74 217.094 241.154 216.516 241.816 216.516C242.312 216.516 242.89 217.094 242.89 217.59V221.889C242.89 222.551 242.312 222.964 241.816 222.964C241.154 222.964 240.74 222.551 240.74 221.889V217.59ZM240.74 226.189C240.74 225.61 241.154 225.031 241.816 225.031C242.312 225.031 242.89 225.61 242.89 226.189V230.405C242.89 231.066 242.312 231.48 241.816 231.48C241.154 231.48 240.74 231.066 240.74 230.405V226.189ZM240.74 237.184V234.704C240.74 234.126 241.154 233.63 241.816 233.63H241.98C242.064 233.464 242.228 233.216 242.312 232.968C242.476 232.39 243.054 232.142 243.634 232.39C244.212 232.555 244.46 233.216 244.294 233.795C243.468 235.613 243.054 236.854 242.89 237.35V239.002C242.89 239.581 242.312 239.994 241.816 239.994C241.154 239.994 240.74 239.581 240.74 239.002V237.184V237.184ZM240.74 243.219C240.74 242.64 241.154 242.144 241.816 242.144C242.312 242.144 242.89 242.64 242.89 243.219V247.518C242.89 248.096 242.312 248.592 241.816 248.592C241.154 248.592 240.74 248.096 240.74 247.518V243.219ZM240.74 251.816C240.74 251.237 241.154 250.659 241.816 250.659C242.312 250.659 242.89 251.237 242.89 251.816V256.032C242.89 256.694 242.312 257.107 241.816 257.107C241.154 257.107 240.74 256.694 240.74 256.032V251.816V251.816ZM244.212 229.082C244.956 227.759 245.7 226.436 246.61 225.278C246.94 224.782 247.602 224.7 248.096 225.03C248.51 225.444 248.676 226.022 248.344 226.601C247.518 227.758 246.774 228.915 246.114 229.991C245.866 230.404 245.618 230.652 245.122 230.652C244.956 230.652 244.79 230.487 244.626 230.404C244.046 230.239 243.964 229.495 244.212 229.082ZM249.503 221.889C250.577 220.98 251.82 219.988 253.06 219.078C253.556 218.913 254.216 218.995 254.548 219.574C254.878 219.987 254.63 220.731 254.216 220.979C253.06 221.64 251.984 222.55 250.991 223.542C250.825 223.707 250.413 223.79 250.247 223.79C249.917 223.79 249.751 223.707 249.503 223.542C249.089 223.047 249.089 222.303 249.503 221.889ZM257.193 217.342C258.599 216.929 260.088 216.681 261.658 216.516C262.236 216.516 262.732 217.094 262.732 217.59C262.732 218.252 262.318 218.665 261.658 218.665C260.336 218.83 259.012 218.995 257.771 219.326C257.771 219.326 257.607 219.409 257.523 219.409C257.027 219.409 256.531 219.078 256.449 218.582C256.283 218.086 256.531 217.508 257.193 217.342Z" fill="#696969"/>
<path d="M273.07 236.85C273.07 235.61 273.154 234.287 273.484 233.047C273.566 232.551 274.144 232.055 274.64 232.138C275.302 232.303 275.55 232.799 275.468 233.46C275.302 234.617 275.136 235.692 275.136 236.85V237.264C275.136 237.925 274.724 238.421 274.228 238.421H274.144C273.566 238.421 273.07 237.925 273.07 237.346V236.85V236.85ZM273.566 241.728C273.484 241.149 273.896 240.653 274.392 240.488C274.888 240.24 275.55 240.653 275.632 241.232C275.964 242.555 276.376 243.795 276.872 244.953C277.204 245.448 276.872 246.11 276.376 246.275C276.294 246.44 276.212 246.44 275.964 246.44C275.55 246.44 275.302 246.192 275.054 245.779C274.393 244.538 273.98 243.133 273.566 241.728V241.728ZM274.641 228.831C275.303 227.508 275.881 226.185 276.709 225.027C277.039 224.449 277.783 224.449 278.197 224.697C278.693 225.027 278.775 225.606 278.445 226.185C277.783 227.176 277.121 228.334 276.625 229.574C276.377 229.988 276.047 230.318 275.633 230.318C275.469 230.318 275.303 230.236 275.303 230.236C274.725 229.988 274.393 229.409 274.641 228.831ZM277.369 249.499C276.873 249.085 277.039 248.507 277.535 248.093C277.949 247.763 278.527 247.846 278.941 248.259C279.683 249.333 280.675 250.243 281.668 251.235C282.082 251.483 282.082 252.145 281.834 252.641C281.586 252.806 281.256 252.971 280.924 252.971C280.76 252.971 280.512 252.806 280.346 252.806C279.187 251.813 278.197 250.821 277.369 249.499V249.499ZM279.602 221.721C280.676 220.647 281.834 219.82 283.157 219.075C283.571 218.827 284.315 218.992 284.479 219.406C284.811 219.902 284.563 220.563 284.149 220.894C282.993 221.472 282.001 222.299 280.924 223.125C280.76 223.373 280.512 223.456 280.346 223.456C280.016 223.456 279.684 223.373 279.52 223.125C279.187 222.713 279.187 222.134 279.602 221.721ZM283.984 255.12C283.404 254.872 283.24 254.294 283.404 253.798C283.736 253.302 284.396 253.054 284.892 253.302C286.05 253.88 287.29 254.294 288.531 254.624C289.191 254.707 289.523 255.286 289.357 255.864C289.275 256.36 288.779 256.691 288.365 256.691H288.117C286.629 256.277 285.223 255.864 283.984 255.12V255.12ZM287.207 217.339C288.531 216.926 290.018 216.678 291.506 216.595C292.086 216.595 292.582 217.009 292.582 217.67C292.582 218.249 292.168 218.662 291.506 218.662C290.184 218.827 288.943 218.992 287.703 219.323C287.621 219.406 287.455 219.406 287.455 219.406C287.043 219.406 286.547 219.075 286.463 218.662C286.299 218.083 286.547 217.505 287.207 217.339V217.339ZM292.416 255.038C293.738 255.038 295.145 254.872 296.301 254.542C296.881 254.376 297.377 254.707 297.625 255.286C297.625 255.864 297.377 256.36 296.881 256.608C295.393 256.856 293.986 257.104 292.498 257.104C291.838 257.104 291.506 256.691 291.506 256.029C291.342 255.534 291.838 255.038 292.416 255.038V255.038ZM295.557 218.992C294.897 218.827 294.567 218.414 294.649 217.835C294.731 217.257 295.309 216.926 295.889 217.009C297.377 217.339 298.7 217.753 300.106 218.414C300.6 218.662 300.766 219.323 300.518 219.819C300.352 220.15 299.94 220.398 299.61 220.398C299.444 220.398 299.196 220.398 299.196 220.232C298.037 219.736 296.715 219.323 295.557 218.992V218.992ZM299.857 253.054C301.013 252.393 302.171 251.731 303.08 250.822C303.494 250.491 304.238 250.574 304.568 250.987C304.982 251.401 304.982 251.979 304.404 252.393C303.412 253.384 302.172 254.211 300.931 254.872C300.683 255.038 300.599 255.038 300.351 255.038C300.105 255.038 299.609 254.872 299.443 254.542C299.195 253.963 299.443 253.384 299.857 253.054ZM302.502 222.3C302.088 221.969 301.924 221.391 302.254 220.895C302.668 220.399 303.246 220.399 303.66 220.729C304.816 221.556 305.89 222.63 306.801 223.871C307.297 224.284 307.131 224.946 306.719 225.359C306.553 225.442 306.223 225.524 305.975 225.524C305.727 225.524 305.397 225.359 305.149 225.111C304.404 224.035 303.494 223.126 302.502 222.3V222.3ZM305.727 247.928C306.553 246.936 307.131 245.779 307.711 244.538C307.875 244.042 308.455 243.794 309.033 244.042C309.529 244.208 309.777 244.869 309.611 245.365C309.033 246.77 308.289 247.928 307.463 249.251C307.297 249.416 306.883 249.664 306.635 249.664C306.387 249.664 306.223 249.499 305.975 249.416C305.478 249.085 305.396 248.341 305.727 247.928V247.928ZM307.297 228.5C307.049 227.921 307.297 227.343 307.711 227.095C308.289 226.764 308.867 226.929 309.199 227.508C309.777 228.748 310.355 230.237 310.687 231.559C310.769 232.138 310.439 232.716 309.943 232.882H309.611C309.199 232.882 308.785 232.551 308.703 232.055C308.371 230.814 307.875 229.574 307.297 228.5V228.5ZM308.867 240.818C309.115 239.578 309.199 238.172 309.199 236.849V236.023C309.199 235.444 309.611 235.031 310.273 234.865C310.769 234.865 311.347 235.279 311.347 235.94V236.849C311.347 238.42 311.181 239.826 310.851 241.231C310.769 241.727 310.355 242.058 309.777 242.058H309.611C309.115 241.976 308.785 241.314 308.867 240.818Z" fill="#696969"/>
<path d="M325 217.59C325 217.094 325.412 216.516 326.074 216.516C326.57 216.516 327.148 217.094 327.148 217.59V221.889C327.148 222.551 326.57 222.964 326.074 222.964C325.412 222.964 325 222.551 325 221.889V217.59ZM325 226.189C325 225.61 325.412 225.031 326.074 225.031C326.57 225.031 327.148 225.61 327.148 226.189V230.405C327.148 231.066 326.57 231.48 326.074 231.48C325.412 231.48 325 231.066 325 230.405V226.189ZM325 237.184V234.704C325 234.126 325.412 233.63 326.074 233.63H326.24C326.322 233.464 326.488 233.216 326.57 232.968C326.736 232.39 327.314 232.142 327.892 232.39C328.472 232.555 328.72 233.216 328.554 233.795C327.728 235.613 327.314 236.854 327.148 237.35V239.002C327.148 239.581 326.57 239.994 326.074 239.994C325.412 239.994 325 239.581 325 239.002V237.184V237.184ZM325 243.219C325 242.64 325.412 242.144 326.074 242.144C326.57 242.144 327.148 242.64 327.148 243.219V247.518C327.148 248.096 326.57 248.592 326.074 248.592C325.412 248.592 325 248.096 325 247.518V243.219ZM325 251.816C325 251.237 325.412 250.659 326.074 250.659C326.57 250.659 327.148 251.237 327.148 251.816V256.032C327.148 256.694 326.57 257.107 326.074 257.107C325.412 257.107 325 256.694 325 256.032V251.816V251.816ZM328.473 229.082C329.215 227.759 329.959 226.436 330.869 225.278C331.199 224.782 331.861 224.7 332.357 225.03C332.771 225.444 332.935 226.022 332.605 226.601C331.779 227.758 331.035 228.915 330.373 229.991C330.125 230.404 329.877 230.652 329.381 230.652C329.215 230.652 329.051 230.487 328.885 230.404C328.307 230.239 328.225 229.495 328.473 229.082ZM333.764 221.889C334.838 220.98 336.078 219.988 337.319 219.078C337.815 218.913 338.475 218.995 338.807 219.574C339.137 219.987 338.889 220.731 338.475 220.979C337.319 221.64 336.243 222.55 335.25 223.542C335.086 223.707 334.672 223.79 334.506 223.79C334.176 223.79 334.012 223.707 333.764 223.542C333.35 223.047 333.35 222.303 333.764 221.889V221.889ZM341.451 217.342C342.857 216.929 344.346 216.681 345.916 216.516C346.494 216.516 346.99 217.094 346.99 217.59C346.99 218.252 346.576 218.665 345.916 218.665C344.594 218.83 343.27 218.995 342.029 219.326C342.029 219.326 341.865 219.409 341.781 219.409C341.285 219.409 340.789 219.078 340.707 218.582C340.541 218.086 340.789 217.508 341.451 217.342Z" fill="#696969"/>
<path d="M186.93 127.97V154.509H162.071V174.833H135.532V154.509H103.786C91.356 154.509 79.598 147.454 79.598 133.849C79.598 128.138 81.95 122.763 85.309 118.228L122.934 68.509H162.071V127.97H186.93V127.97ZM135.531 96.056L111.511 127.97H135.531V96.056Z" fill="#6200EE"/>
<path d="M304.67 122.26C304.67 152.494 280.818 178.362 250.08 178.362C219.342 178.362 195.322 152.495 195.322 122.26C195.322 91.858 219.342 66.158 250.08 66.158C280.818 66.158 304.67 91.858 304.67 122.26V122.26ZM278.299 122.26C278.299 106.471 266.205 92.53 250.08 92.53C233.955 92.53 221.693 106.471 221.693 122.26C221.693 137.881 233.787 151.823 250.08 151.823C266.205 151.822 278.299 137.881 278.299 122.26Z" fill="#6200EE"/>
<path d="M420.4 127.97V154.509H395.541V174.833H369.002V154.509H337.256C324.826 154.509 313.068 147.454 313.068 133.849C313.068 128.138 315.42 122.763 318.779 118.228L356.404 68.509H395.541V127.97H420.4V127.97ZM369.002 96.056L344.982 127.97H369.002V96.056Z" fill="#6200EE"/>
</svg>
